<?xml version="1.0" encoding="UTF-8"?>
<svg viewBox="0 0 720 480" xmlns="http://www.w3.org/2000/svg" role="img" aria-label="Agenda illustration">
  <defs>
    <linearGradient id="bg" x1="0" y1="0" x2="1" y2="1">
      <stop offset="0" stop-color="#F8FAFC" />
      <stop offset="1" stop-color="#FFF7ED" />
    </linearGradient>
    <linearGradient id="accent" x1="0" y1="0" x2="1" y2="1">
      <stop offset="0" stop-color="#F5B942" />
      <stop offset="1" stop-color="#F59E0B" />
    </linearGradient>
    <filter id="shadow" x="-20%" y="-20%" width="140%" height="140%">
      <feDropShadow dx="0" dy="14" stdDeviation="14" flood-color="#0F172A" flood-opacity="0.14" />
    </filter>
  </defs>

  <rect x="0" y="0" width="720" height="480" rx="40" fill="url(#bg)" />

  <g filter="url(#shadow)">
    <rect x="72" y="62" width="576" height="356" rx="28" fill="#FFFFFF" />
  </g>

  <rect x="96" y="86" width="528" height="46" rx="18" fill="#F1F5F9" />
  <rect x="116" y="102" width="210" height="12" rx="6" fill="#94A3B8" opacity="0.75" />
  <rect x="520" y="96" width="104" height="26" rx="13" fill="url(#accent)" opacity="0.95" />

  <rect x="96" y="152" width="528" height="246" rx="22" fill="#FFFFFF" stroke="#E2E8F0" />

  <g>
    <rect x="116" y="176" width="492" height="56" rx="18" fill="#F8FAFC" stroke="#E2E8F0" />
    <rect x="138" y="194" width="210" height="12" rx="6" fill="#0F172A" opacity="0.78" />
    <rect x="138" y="214" width="260" height="10" rx="5" fill="#94A3B8" opacity="0.55" />
    <rect x="496" y="192" width="92" height="28" rx="14" fill="#FFFFFF" stroke="#CBD5E1" />
    <rect x="506" y="202" width="52" height="8" rx="4" fill="#94A3B8" opacity="0.8" />
  </g>

  <g>
    <rect x="116" y="244" width="492" height="56" rx="18" fill="#FFFFFF" stroke="#E2E8F0" />
    <rect x="138" y="262" width="238" height="12" rx="6" fill="#0F172A" opacity="0.68" />
    <rect x="138" y="282" width="230" height="10" rx="5" fill="#94A3B8" opacity="0.55" />
    <rect x="496" y="260" width="92" height="28" rx="14" fill="#FFFFFF" stroke="#CBD5E1" />
    <rect x="506" y="270" width="58" height="8" rx="4" fill="#94A3B8" opacity="0.8" />
  </g>

  <g>
    <rect x="116" y="312" width="492" height="56" rx="18" fill="#FFFFFF" stroke="#E2E8F0" />
    <rect x="138" y="330" width="188" height="12" rx="6" fill="#0F172A" opacity="0.7" />
    <rect x="138" y="350" width="248" height="10" rx="5" fill="#94A3B8" opacity="0.55" />
    <rect x="496" y="328" width="92" height="28" rx="14" fill="#FFFFFF" stroke="#CBD5E1" />
    <rect x="506" y="338" width="48" height="8" rx="4" fill="#94A3B8" opacity="0.8" />
  </g>

  <rect x="112" y="418" width="496" height="10" rx="5" fill="#E2E8F0" opacity="0.7" />
</svg>

