<?xml version="1.0" encoding="UTF-8"?>
<svg viewBox="0 0 720 480" xmlns="http://www.w3.org/2000/svg" role="img" aria-label="Branding illustration">
  <defs>
    <linearGradient id="bg" x1="0" y1="0" x2="1" y2="1">
      <stop offset="0" stop-color="#F8FAFC" />
      <stop offset="1" stop-color="#F1F5F9" />
    </linearGradient>
    <linearGradient id="banner" x1="0" y1="0" x2="1" y2="1">
      <stop offset="0" stop-color="#0F172A" />
      <stop offset="0.55" stop-color="#1F2937" />
      <stop offset="1" stop-color="#F5B942" />
    </linearGradient>
    <filter id="shadow" x="-20%" y="-20%" width="140%" height="140%">
      <feDropShadow dx="0" dy="14" stdDeviation="14" flood-color="#0F172A" flood-opacity="0.14" />
    </filter>
  </defs>

  <rect x="0" y="0" width="720" height="480" rx="40" fill="url(#bg)" />

  <g filter="url(#shadow)">
    <rect x="72" y="62" width="576" height="356" rx="28" fill="#FFFFFF" />
  </g>

  <rect x="96" y="86" width="528" height="120" rx="22" fill="url(#banner)" />

  <rect x="116" y="226" width="248" height="172" rx="22" fill="#FFFFFF" stroke="#E2E8F0" />
  <rect x="140" y="252" width="146" height="12" rx="6" fill="#0F172A" opacity="0.75" />
  <rect x="140" y="276" width="194" height="10" rx="5" fill="#94A3B8" opacity="0.55" />
  <rect x="140" y="302" width="170" height="10" rx="5" fill="#94A3B8" opacity="0.55" />
  <rect x="140" y="328" width="130" height="10" rx="5" fill="#94A3B8" opacity="0.55" />
  <rect x="140" y="354" width="196" height="16" rx="8" fill="#0F172A" opacity="0.1" />

  <rect x="384" y="226" width="240" height="172" rx="22" fill="#FFFFFF" stroke="#E2E8F0" />
  <rect x="404" y="252" width="198" height="12" rx="6" fill="#94A3B8" opacity="0.65" />
  <rect x="404" y="276" width="174" height="10" rx="5" fill="#94A3B8" opacity="0.55" />
  <rect x="404" y="298" width="186" height="10" rx="5" fill="#94A3B8" opacity="0.55" />
  <rect x="404" y="320" width="152" height="10" rx="5" fill="#94A3B8" opacity="0.55" />

  <g>
    <circle cx="148" cy="146" r="34" fill="#FFFFFF" />
    <rect x="124" y="122" width="48" height="48" rx="16" fill="#0F172A" opacity="0.9" />
    <rect x="138" y="138" width="20" height="8" rx="4" fill="#F5B942" opacity="0.95" />
  </g>

  <g>
    <circle cx="582" cy="146" r="34" fill="#FFFFFF" />
    <circle cx="582" cy="142" r="18" fill="#0F172A" opacity="0.18" />
    <rect x="564" y="164" width="36" height="14" rx="7" fill="#0F172A" opacity="0.18" />
  </g>
</svg>

