<?xml version="1.0" encoding="UTF-8"?>
<svg viewBox="0 0 720 480" xmlns="http://www.w3.org/2000/svg" role="img" aria-label="Dashboard illustration">
  <defs>
    <linearGradient id="bg" x1="0" y1="0" x2="1" y2="1">
      <stop offset="0" stop-color="#F8FAFC" />
      <stop offset="1" stop-color="#EEF2FF" />
    </linearGradient>
    <linearGradient id="accent" x1="0" y1="0" x2="1" y2="1">
      <stop offset="0" stop-color="#F5B942" />
      <stop offset="1" stop-color="#F59E0B" />
    </linearGradient>
    <filter id="shadow" x="-20%" y="-20%" width="140%" height="140%">
      <feDropShadow dx="0" dy="14" stdDeviation="14" flood-color="#0F172A" flood-opacity="0.14" />
    </filter>
  </defs>

  <rect x="0" y="0" width="720" height="480" rx="40" fill="url(#bg)" />

  <g filter="url(#shadow)">
    <rect x="60" y="64" width="600" height="352" rx="28" fill="#FFFFFF" />
  </g>

  <rect x="78" y="84" width="132" height="312" rx="22" fill="#0F172A" />
  <rect x="96" y="104" width="96" height="12" rx="6" fill="#F8FAFC" opacity="0.9" />
  <rect x="96" y="134" width="88" height="10" rx="5" fill="#F8FAFC" opacity="0.35" />
  <rect x="96" y="156" width="72" height="10" rx="5" fill="#F8FAFC" opacity="0.35" />
  <rect x="96" y="178" width="80" height="10" rx="5" fill="#F8FAFC" opacity="0.35" />

  <rect x="236" y="84" width="406" height="44" rx="18" fill="#F1F5F9" />
  <rect x="260" y="100" width="168" height="12" rx="6" fill="#94A3B8" opacity="0.7" />
  <rect x="536" y="96" width="88" height="20" rx="10" fill="url(#accent)" />

  <rect x="236" y="148" width="126" height="92" rx="20" fill="#F8FAFC" stroke="#E2E8F0" />
  <rect x="256" y="166" width="72" height="10" rx="5" fill="#94A3B8" opacity="0.85" />
  <rect x="256" y="188" width="96" height="18" rx="9" fill="#0F172A" opacity="0.9" />

  <rect x="378" y="148" width="126" height="92" rx="20" fill="#F8FAFC" stroke="#E2E8F0" />
  <rect x="398" y="166" width="64" height="10" rx="5" fill="#94A3B8" opacity="0.85" />
  <rect x="398" y="188" width="88" height="18" rx="9" fill="#F5B942" opacity="0.95" />

  <rect x="520" y="148" width="122" height="92" rx="20" fill="#F8FAFC" stroke="#E2E8F0" />
  <rect x="540" y="166" width="58" height="10" rx="5" fill="#94A3B8" opacity="0.85" />
  <rect x="540" y="188" width="78" height="18" rx="9" fill="#0F172A" opacity="0.75" />

  <rect x="236" y="260" width="406" height="136" rx="22" fill="#FFFFFF" stroke="#E2E8F0" />
  <rect x="260" y="284" width="168" height="12" rx="6" fill="#94A3B8" opacity="0.65" />
  <path
    d="M260 350 C300 310, 340 378, 392 332 C432 296, 476 350, 520 318 C560 288, 598 324, 624 302"
    fill="none"
    stroke="#0F172A"
    stroke-width="4"
    opacity="0.75"
    stroke-linecap="round"
  />
  <path
    d="M260 366 C308 338, 340 386, 392 356 C440 326, 476 362, 520 346 C568 328, 602 352, 624 338"
    fill="none"
    stroke="#F5B942"
    stroke-width="4"
    opacity="0.95"
    stroke-linecap="round"
  />
</svg>

