<?xml version="1.0" encoding="UTF-8"?>
<svg viewBox="0 0 720 480" xmlns="http://www.w3.org/2000/svg" role="img" aria-label="Notifications illustration">
  <defs>
    <linearGradient id="bg" x1="0" y1="0" x2="1" y2="1">
      <stop offset="0" stop-color="#F8FAFC" />
      <stop offset="1" stop-color="#F0FDFA" />
    </linearGradient>
    <linearGradient id="accent" x1="0" y1="0" x2="1" y2="1">
      <stop offset="0" stop-color="#0F172A" />
      <stop offset="1" stop-color="#334155" />
    </linearGradient>
    <filter id="shadow" x="-20%" y="-20%" width="140%" height="140%">
      <feDropShadow dx="0" dy="14" stdDeviation="14" flood-color="#0F172A" flood-opacity="0.14" />
    </filter>
  </defs>

  <rect x="0" y="0" width="720" height="480" rx="40" fill="url(#bg)" />

  <g filter="url(#shadow)">
    <rect x="72" y="62" width="576" height="356" rx="28" fill="#FFFFFF" />
  </g>

  <rect x="96" y="86" width="528" height="54" rx="20" fill="#F1F5F9" />
  <rect x="116" y="106" width="192" height="12" rx="6" fill="#94A3B8" opacity="0.75" />
  <rect x="546" y="98" width="78" height="30" rx="15" fill="url(#accent)" opacity="0.95" />

  <g>
    <circle cx="520" cy="112" r="6" fill="#F59E0B" />
    <path
      d="M496 118 C502 112, 502 100, 508 94 C514 88, 526 88, 532 94 C538 100, 538 112, 544 118"
      fill="none"
      stroke="#0F172A"
      stroke-width="4"
      opacity="0.6"
      stroke-linecap="round"
    />
    <path
      d="M507 120 C512 126, 528 126, 533 120"
      fill="none"
      stroke="#0F172A"
      stroke-width="4"
      opacity="0.6"
      stroke-linecap="round"
    />
  </g>

  <rect x="96" y="160" width="528" height="238" rx="22" fill="#FFFFFF" stroke="#E2E8F0" />

  <g>
    <rect x="116" y="186" width="492" height="56" rx="18" fill="#F8FAFC" stroke="#E2E8F0" />
    <circle cx="144" cy="214" r="10" fill="#F5B942" />
    <rect x="164" y="202" width="210" height="12" rx="6" fill="#0F172A" opacity="0.78" />
    <rect x="164" y="222" width="284" height="10" rx="5" fill="#94A3B8" opacity="0.55" />
    <rect x="520" y="206" width="72" height="18" rx="9" fill="#0F172A" opacity="0.1" />
  </g>

  <g>
    <rect x="116" y="254" width="492" height="56" rx="18" fill="#FFFFFF" stroke="#E2E8F0" />
    <circle cx="144" cy="282" r="10" fill="#0F172A" opacity="0.22" />
    <rect x="164" y="270" width="178" height="12" rx="6" fill="#0F172A" opacity="0.65" />
    <rect x="164" y="290" width="300" height="10" rx="5" fill="#94A3B8" opacity="0.55" />
  </g>

  <g>
    <rect x="116" y="322" width="492" height="56" rx="18" fill="#FFFFFF" stroke="#E2E8F0" />
    <circle cx="144" cy="350" r="10" fill="#22C55E" opacity="0.9" />
    <rect x="164" y="338" width="236" height="12" rx="6" fill="#0F172A" opacity="0.7" />
    <rect x="164" y="358" width="260" height="10" rx="5" fill="#94A3B8" opacity="0.55" />
    <rect x="496" y="342" width="96" height="18" rx="9" fill="#DCFCE7" />
    <rect x="506" y="347" width="56" height="8" rx="4" fill="#166534" opacity="0.85" />
  </g>

  <rect x="112" y="418" width="496" height="10" rx="5" fill="#E2E8F0" opacity="0.7" />
</svg>

