<?xml version="1.0" encoding="UTF-8"?>
<svg viewBox="0 0 720 480" xmlns="http://www.w3.org/2000/svg" role="img" aria-label="Quotes illustration">
  <defs>
    <linearGradient id="bg" x1="0" y1="0" x2="1" y2="1">
      <stop offset="0" stop-color="#F8FAFC" />
      <stop offset="1" stop-color="#F1F5F9" />
    </linearGradient>
    <linearGradient id="accent" x1="0" y1="0" x2="1" y2="1">
      <stop offset="0" stop-color="#F5B942" />
      <stop offset="1" stop-color="#F59E0B" />
    </linearGradient>
    <filter id="shadow" x="-20%" y="-20%" width="140%" height="140%">
      <feDropShadow dx="0" dy="14" stdDeviation="14" flood-color="#0F172A" flood-opacity="0.14" />
    </filter>
  </defs>

  <rect x="0" y="0" width="720" height="480" rx="40" fill="url(#bg)" />

  <g filter="url(#shadow)">
    <rect x="70" y="66" width="580" height="348" rx="28" fill="#FFFFFF" />
  </g>

  <rect x="92" y="88" width="536" height="44" rx="18" fill="#F1F5F9" />
  <rect x="112" y="104" width="192" height="12" rx="6" fill="#94A3B8" opacity="0.75" />
  <rect x="520" y="98" width="92" height="24" rx="12" fill="url(#accent)" />

  <rect x="92" y="152" width="536" height="230" rx="22" fill="#FFFFFF" stroke="#E2E8F0" />

  <rect x="112" y="174" width="156" height="10" rx="5" fill="#94A3B8" opacity="0.75" />
  <rect x="300" y="174" width="92" height="10" rx="5" fill="#94A3B8" opacity="0.55" />
  <rect x="510" y="170" width="92" height="18" rx="9" fill="#0F172A" opacity="0.12" />

  <g opacity="0.95">
    <rect x="112" y="208" width="180" height="14" rx="7" fill="#0F172A" opacity="0.78" />
    <rect x="310" y="210" width="110" height="10" rx="5" fill="#94A3B8" opacity="0.65" />
    <rect x="514" y="206" width="86" height="18" rx="9" fill="#FEF3C7" />
    <rect x="522" y="211" width="48" height="8" rx="4" fill="#B45309" opacity="0.85" />
  </g>

  <rect x="112" y="244" width="240" height="14" rx="7" fill="#0F172A" opacity="0.65" />
  <rect x="310" y="246" width="92" height="10" rx="5" fill="#94A3B8" opacity="0.6" />
  <rect x="514" y="242" width="86" height="18" rx="9" fill="#DCFCE7" />
  <rect x="522" y="247" width="56" height="8" rx="4" fill="#166534" opacity="0.85" />

  <rect x="112" y="280" width="210" height="14" rx="7" fill="#0F172A" opacity="0.7" />
  <rect x="310" y="282" width="120" height="10" rx="5" fill="#94A3B8" opacity="0.55" />
  <rect x="514" y="278" width="86" height="18" rx="9" fill="#E0E7FF" />
  <rect x="522" y="283" width="62" height="8" rx="4" fill="#3730A3" opacity="0.85" />

  <rect x="112" y="316" width="230" height="14" rx="7" fill="#0F172A" opacity="0.6" />
  <rect x="310" y="318" width="98" height="10" rx="5" fill="#94A3B8" opacity="0.55" />
  <rect x="514" y="314" width="86" height="18" rx="9" fill="#FFE4E6" />
  <rect x="522" y="319" width="52" height="8" rx="4" fill="#9F1239" opacity="0.85" />

  <rect x="92" y="402" width="536" height="10" rx="5" fill="#E2E8F0" opacity="0.7" />
  <rect x="92" y="152" width="536" height="48" rx="22" fill="#F8FAFC" />
  <rect x="112" y="168" width="112" height="12" rx="6" fill="#94A3B8" opacity="0.55" />
  <rect x="250" y="168" width="96" height="12" rx="6" fill="#94A3B8" opacity="0.45" />
  <rect x="370" y="168" width="108" height="12" rx="6" fill="#94A3B8" opacity="0.45" />
  <rect x="514" y="166" width="86" height="16" rx="8" fill="#0F172A" opacity="0.1" />
</svg>

