<?xml version="1.0" encoding="UTF-8"?>
<svg viewBox="0 0 720 480" xmlns="http://www.w3.org/2000/svg" role="img" aria-label="Viewer illustration">
  <defs>
    <linearGradient id="bg" x1="0" y1="0" x2="1" y2="1">
      <stop offset="0" stop-color="#F8FAFC" />
      <stop offset="1" stop-color="#ECFEFF" />
    </linearGradient>
    <linearGradient id="accent" x1="0" y1="0" x2="1" y2="1">
      <stop offset="0" stop-color="#0F172A" />
      <stop offset="1" stop-color="#334155" />
    </linearGradient>
    <filter id="shadow" x="-20%" y="-20%" width="140%" height="140%">
      <feDropShadow dx="0" dy="14" stdDeviation="14" flood-color="#0F172A" flood-opacity="0.14" />
    </filter>
  </defs>

  <rect x="0" y="0" width="720" height="480" rx="40" fill="url(#bg)" />

  <g filter="url(#shadow)">
    <rect x="72" y="62" width="576" height="356" rx="28" fill="#FFFFFF" />
  </g>

  <rect x="96" y="86" width="528" height="46" rx="18" fill="#F1F5F9" />
  <rect x="116" y="102" width="220" height="12" rx="6" fill="#94A3B8" opacity="0.75" />
  <rect x="520" y="96" width="104" height="26" rx="13" fill="url(#accent)" opacity="0.95" />

  <g>
    <rect x="96" y="152" width="528" height="246" rx="22" fill="#F8FAFC" stroke="#E2E8F0" />
    <rect x="142" y="182" width="240" height="16" rx="8" fill="#0F172A" opacity="0.82" />
    <rect x="142" y="210" width="356" height="10" rx="5" fill="#94A3B8" opacity="0.65" />
    <rect x="142" y="230" width="330" height="10" rx="5" fill="#94A3B8" opacity="0.55" />
    <rect x="142" y="250" width="304" height="10" rx="5" fill="#94A3B8" opacity="0.55" />
    <rect x="142" y="270" width="356" height="10" rx="5" fill="#94A3B8" opacity="0.55" />

    <rect x="142" y="302" width="146" height="14" rx="7" fill="#0F172A" opacity="0.18" />
    <rect x="142" y="326" width="376" height="10" rx="5" fill="#94A3B8" opacity="0.55" />
    <rect x="142" y="346" width="340" height="10" rx="5" fill="#94A3B8" opacity="0.55" />
  </g>

  <rect x="112" y="418" width="496" height="10" rx="5" fill="#E2E8F0" opacity="0.7" />
</svg>

