<svg width="1200" height="675" viewBox="0 0 1200 675" fill="none" xmlns="http://www.w3.org/2000/svg">
  <defs>
    <linearGradient id="bgGuias" x1="0" y1="0" x2="1200" y2="675" gradientUnits="userSpaceOnUse">
      <stop stop-color="#0F172A"/>
      <stop offset="1" stop-color="#1E3A8A"/>
    </linearGradient>
  </defs>

  <rect width="1200" height="675" rx="36" fill="url(#bgGuias)"/>
  <circle cx="1020" cy="120" r="160" fill="#38BDF8" fill-opacity="0.16"/>
  <circle cx="160" cy="586" r="140" fill="#F59E0B" fill-opacity="0.15"/>

  <rect x="92" y="74" width="1016" height="527" rx="28" fill="#F8FAFC"/>
  <rect x="92" y="74" width="1016" height="56" rx="28" fill="#111827"/>
  <text x="180" y="108" font-size="14" fill="#E2E8F0" font-family="Arial, sans-serif" font-weight="700">VENTANA GUIAS Y PRECIOS</text>

  <rect x="130" y="160" width="286" height="402" rx="22" fill="#FFFFFF" stroke="#CBD5E1"/>
  <rect x="160" y="194" width="226" height="14" rx="7" fill="#CBD5E1"/>
  <rect x="160" y="222" width="186" height="10" rx="5" fill="#E2E8F0"/>
  <rect x="160" y="242" width="210" height="10" rx="5" fill="#E2E8F0"/>
  <rect x="160" y="274" width="226" height="108" rx="14" fill="#F1F5F9"/>
  <rect x="184" y="302" width="90" height="16" rx="8" fill="#93C5FD"/>
  <rect x="184" y="328" width="170" height="10" rx="5" fill="#CBD5E1"/>
  <rect x="184" y="346" width="152" height="10" rx="5" fill="#E2E8F0"/>
  <rect x="160" y="404" width="226" height="132" rx="14" fill="#F8FAFC"/>
  <rect x="184" y="432" width="82" height="72" rx="10" fill="#DBEAFE"/>
  <text x="225" y="475" text-anchor="middle" font-size="24" fill="#1D4ED8" font-family="Arial, sans-serif" font-weight="700">$</text>
  <rect x="282" y="438" width="86" height="10" rx="5" fill="#CBD5E1"/>
  <rect x="282" y="458" width="74" height="10" rx="5" fill="#E2E8F0"/>
  <rect x="282" y="478" width="62" height="10" rx="5" fill="#E2E8F0"/>

  <rect x="446" y="160" width="286" height="402" rx="22" fill="#FFFFFF" stroke="#CBD5E1"/>
  <rect x="476" y="194" width="180" height="14" rx="7" fill="#CBD5E1"/>
  <rect x="476" y="224" width="226" height="84" rx="14" fill="#EEF2FF"/>
  <text x="589" y="273" text-anchor="middle" font-size="34" fill="#1D4ED8" font-family="Arial, sans-serif" font-weight="700">AR$ 38.400</text>
  <rect x="476" y="328" width="226" height="10" rx="5" fill="#CBD5E1"/>
  <rect x="476" y="348" width="202" height="10" rx="5" fill="#E2E8F0"/>
  <rect x="476" y="368" width="170" height="10" rx="5" fill="#E2E8F0"/>
  <rect x="476" y="404" width="226" height="132" rx="14" fill="#F8FAFC"/>
  <rect x="500" y="432" width="178" height="20" rx="10" fill="#DBEAFE"/>
  <rect x="500" y="466" width="86" height="52" rx="10" fill="#BFDBFE"/>
  <rect x="594" y="450" width="84" height="68" rx="10" fill="#60A5FA"/>

  <rect x="762" y="160" width="308" height="402" rx="22" fill="#FFFFFF" stroke="#CBD5E1"/>
  <rect x="792" y="194" width="222" height="14" rx="7" fill="#CBD5E1"/>
  <rect x="792" y="222" width="248" height="284" rx="16" fill="#F8FAFC"/>
  <rect x="816" y="248" width="200" height="10" rx="5" fill="#CBD5E1"/>
  <rect x="816" y="268" width="170" height="10" rx="5" fill="#E2E8F0"/>
  <rect x="816" y="296" width="90" height="42" rx="10" fill="#FEF3C7"/>
  <text x="861" y="321" text-anchor="middle" font-size="20" fill="#92400E" font-family="Arial, sans-serif" font-weight="700">-12%</text>
  <rect x="916" y="296" width="100" height="42" rx="10" fill="#DCFCE7"/>
  <text x="966" y="321" text-anchor="middle" font-size="20" fill="#166534" font-family="Arial, sans-serif" font-weight="700">OK</text>
  <rect x="816" y="358" width="200" height="10" rx="5" fill="#CBD5E1"/>
  <rect x="816" y="378" width="180" height="10" rx="5" fill="#E2E8F0"/>
  <rect x="816" y="398" width="190" height="10" rx="5" fill="#E2E8F0"/>
  <rect x="816" y="430" width="200" height="56" rx="12" fill="#111827"/>
  <text x="916" y="464" text-anchor="middle" font-size="16" fill="#E5E7EB" font-family="Arial, sans-serif" font-weight="700">ACTUALIZADO SEMANAL</text>
</svg>
