<svg width="1200" height="675" viewBox="0 0 1200 675" fill="none" xmlns="http://www.w3.org/2000/svg">
  <defs>
    <linearGradient id="bgBiz" x1="0" y1="0" x2="1200" y2="675" gradientUnits="userSpaceOnUse">
      <stop stop-color="#0B1E44"/>
      <stop offset="1" stop-color="#1E40AF"/>
    </linearGradient>
  </defs>

  <rect width="1200" height="675" rx="36" fill="url(#bgBiz)"/>
  <circle cx="110" cy="120" r="150" fill="#22C55E" fill-opacity="0.14"/>
  <circle cx="1020" cy="610" r="200" fill="#F59E0B" fill-opacity="0.1"/>

  <rect x="90" y="74" width="1020" height="527" rx="28" fill="#F8FAFC"/>
  <rect x="90" y="74" width="1020" height="56" rx="28" fill="#111827"/>
  <rect x="116" y="90" width="180" height="24" rx="12" fill="#1D4ED8"/>
  <text x="206" y="106" text-anchor="middle" font-size="11" fill="#E2E8F0" font-family="Arial, sans-serif" font-weight="700">PIPELINE COMERCIAL</text>
  <rect x="974" y="88" width="110" height="28" rx="14" fill="#2563EB"/>
  <text x="1029" y="106" text-anchor="middle" font-size="11" fill="#E2E8F0" font-family="Arial, sans-serif" font-weight="700">NEGOCIO</text>

  <rect x="122" y="150" width="230" height="424" rx="18" fill="#EEF2FF"/>
  <rect x="144" y="176" width="186" height="14" rx="7" fill="#C7D2FE"/>
  <rect x="144" y="208" width="186" height="88" rx="12" fill="#FFFFFF"/>
  <rect x="156" y="224" width="88" height="10" rx="5" fill="#CBD5E1"/>
  <rect x="156" y="242" width="66" height="10" rx="5" fill="#E2E8F0"/>
  <rect x="156" y="264" width="64" height="18" rx="9" fill="#DBEAFE"/>
  <rect x="144" y="312" width="186" height="88" rx="12" fill="#FFFFFF"/>
  <rect x="144" y="416" width="186" height="88" rx="12" fill="#FFFFFF"/>

  <rect x="374" y="150" width="356" height="204" rx="18" fill="#FFFFFF"/>
  <rect x="400" y="174" width="170" height="14" rx="7" fill="#CBD5E1"/>
  <circle cx="470" cy="258" r="70" fill="#E2E8F0"/>
  <path d="M470 202 A56 56 0 0 1 519 285 L470 258 Z" fill="#1D4ED8"/>
  <path d="M519 285 A56 56 0 0 1 425 296 L470 258 Z" fill="#3B82F6"/>
  <path d="M425 296 A56 56 0 0 1 470 202 L470 258 Z" fill="#60A5FA"/>
  <rect x="566" y="220" width="138" height="14" rx="7" fill="#CBD5E1"/>
  <rect x="566" y="246" width="116" height="10" rx="5" fill="#E2E8F0"/>
  <rect x="566" y="264" width="130" height="10" rx="5" fill="#E2E8F0"/>
  <rect x="566" y="282" width="92" height="10" rx="5" fill="#E2E8F0"/>

  <rect x="748" y="150" width="336" height="424" rx="18" fill="#FFFFFF"/>
  <rect x="774" y="176" width="168" height="14" rx="7" fill="#CBD5E1"/>
  <rect x="774" y="210" width="284" height="78" rx="12" fill="#F8FAFC"/>
  <rect x="786" y="228" width="142" height="10" rx="5" fill="#CBD5E1"/>
  <rect x="786" y="246" width="110" height="10" rx="5" fill="#E2E8F0"/>
  <rect x="930" y="228" width="116" height="42" rx="10" fill="#DBEAFE"/>
  <text x="988" y="255" text-anchor="middle" font-size="18" fill="#1D4ED8" font-family="Arial, sans-serif" font-weight="700">64%</text>
  <rect x="774" y="304" width="284" height="78" rx="12" fill="#F8FAFC"/>
  <rect x="774" y="398" width="284" height="78" rx="12" fill="#F8FAFC"/>
  <rect x="774" y="492" width="284" height="58" rx="12" fill="#111827"/>
  <text x="916" y="528" text-anchor="middle" font-size="16" fill="#E5E7EB" font-family="Arial, sans-serif" font-weight="700">ESTADO GLOBAL ESTABLE</text>

  <rect x="374" y="372" width="356" height="202" rx="18" fill="#FFFFFF"/>
  <rect x="400" y="398" width="170" height="14" rx="7" fill="#CBD5E1"/>
  <rect x="400" y="426" width="304" height="128" rx="12" fill="#F8FAFC"/>
  <polyline points="424,532 466,506 508,514 550,486 592,492 634,458 676,466"
    fill="none" stroke="#16A34A" stroke-width="5" stroke-linecap="round" stroke-linejoin="round"/>
</svg>
