<svg width="1200" height="675" viewBox="0 0 1200 675" fill="none" xmlns="http://www.w3.org/2000/svg">
  <defs>
    <linearGradient id="bgCities" x1="0" y1="0" x2="1200" y2="675" gradientUnits="userSpaceOnUse">
      <stop stop-color="#0B1E44"/>
      <stop offset="1" stop-color="#1E40AF"/>
    </linearGradient>
    <linearGradient id="mapGrad" x1="160" y1="170" x2="1030" y2="540" gradientUnits="userSpaceOnUse">
      <stop stop-color="#E2E8F0"/>
      <stop offset="1" stop-color="#CBD5E1"/>
    </linearGradient>
  </defs>

  <rect width="1200" height="675" rx="36" fill="url(#bgCities)"/>
  <circle cx="1080" cy="86" r="120" fill="#F59E0B" fill-opacity="0.18"/>
  <circle cx="140" cy="580" r="150" fill="#22C55E" fill-opacity="0.14"/>

  <rect x="96" y="78" width="1008" height="518" rx="28" fill="#F8FAFC"/>
  <rect x="96" y="78" width="1008" height="56" rx="28" fill="#0F172A"/>
  <text x="202" y="112" font-size="14" fill="#E2E8F0" font-family="Arial, sans-serif" font-weight="700">VENTANA CIUDADES</text>

  <rect x="134" y="162" width="932" height="402" rx="22" fill="#FFFFFF"/>
  <rect x="160" y="188" width="346" height="350" rx="16" fill="#F1F5F9"/>
  <rect x="176" y="206" width="140" height="12" rx="6" fill="#CBD5E1"/>
  <rect x="176" y="228" width="112" height="10" rx="5" fill="#E2E8F0"/>
  <rect x="176" y="256" width="300" height="40" rx="10" fill="#DBEAFE"/>
  <text x="326" y="282" text-anchor="middle" font-size="16" fill="#1D4ED8" font-family="Arial, sans-serif" font-weight="700">Argentina - Zonas Activas</text>
  <rect x="176" y="318" width="300" height="204" rx="12" fill="#E2E8F0"/>

  <rect x="530" y="188" width="510" height="350" rx="18" fill="url(#mapGrad)"/>
  <path d="M700 250 L730 230 L770 240 L806 232 L842 248 L866 275 L850 312 L820 330 L782 336 L760 362 L724 358 L700 332 L676 310 L684 278 Z"
    fill="#94A3B8" fill-opacity="0.6" stroke="#64748B" stroke-width="2"/>
  <path d="M644 438 L670 420 L696 430 L704 454 L690 478 L662 484 L640 466 Z"
    fill="#94A3B8" fill-opacity="0.5" stroke="#64748B" stroke-width="2"/>

  <g fill="#1D4ED8">
    <circle cx="760" cy="292" r="10"/>
    <circle cx="706" cy="312" r="9"/>
    <circle cx="808" cy="276" r="9"/>
    <circle cx="674" cy="454" r="9"/>
  </g>
  <g fill="#F59E0B">
    <circle cx="782" cy="338" r="9"/>
    <circle cx="724" cy="348" r="8"/>
  </g>

  <rect x="560" y="470" width="450" height="44" rx="12" fill="#FFFFFF"/>
  <rect x="580" y="486" width="110" height="12" rx="6" fill="#DBEAFE"/>
  <rect x="712" y="486" width="146" height="12" rx="6" fill="#DCFCE7"/>
  <rect x="878" y="486" width="112" height="12" rx="6" fill="#FEF3C7"/>
</svg>
