<svg width="1200" height="675" viewBox="0 0 1200 675" fill="none" xmlns="http://www.w3.org/2000/svg">
  <defs>
    <linearGradient id="bgRubros" x1="60" y1="0" x2="1140" y2="675" gradientUnits="userSpaceOnUse">
      <stop stop-color="#111827"/>
      <stop offset="1" stop-color="#1E3A8A"/>
    </linearGradient>
  </defs>

  <rect width="1200" height="675" rx="36" fill="url(#bgRubros)"/>
  <circle cx="1040" cy="126" r="150" fill="#F59E0B" fill-opacity="0.14"/>
  <circle cx="170" cy="574" r="170" fill="#22C55E" fill-opacity="0.12"/>

  <rect x="98" y="84" width="1004" height="507" rx="28" fill="#F8FAFC"/>
  <rect x="98" y="84" width="1004" height="56" rx="28" fill="#0F172A"/>
  <text x="200" y="118" font-size="14" fill="#E2E8F0" font-family="Arial, sans-serif" font-weight="700">VENTANA RUBROS</text>

  <rect x="136" y="166" width="928" height="387" rx="24" fill="#FFFFFF"/>
  <rect x="170" y="198" width="312" height="146" rx="18" fill="#F8FAFC"/>
  <rect x="194" y="224" width="120" height="12" rx="6" fill="#CBD5E1"/>
  <rect x="194" y="246" width="96" height="10" rx="5" fill="#E2E8F0"/>
  <circle cx="394" cy="272" r="34" fill="#DBEAFE"/>
  <path d="M394 250 L403 268 L424 270 L408 284 L412 306 L394 296 L376 306 L380 284 L364 270 L385 268 Z" fill="#1D4ED8"/>

  <rect x="510" y="198" width="246" height="146" rx="18" fill="#F8FAFC"/>
  <rect x="534" y="224" width="118" height="12" rx="6" fill="#CBD5E1"/>
  <rect x="534" y="246" width="86" height="10" rx="5" fill="#E2E8F0"/>
  <rect x="534" y="272" width="198" height="50" rx="12" fill="#EFF6FF"/>
  <text x="633" y="302" text-anchor="middle" font-size="20" fill="#1D4ED8" font-family="Arial, sans-serif" font-weight="700">8 RUBROS</text>

  <rect x="784" y="198" width="246" height="146" rx="18" fill="#F8FAFC"/>
  <rect x="808" y="224" width="126" height="12" rx="6" fill="#CBD5E1"/>
  <rect x="808" y="246" width="96" height="10" rx="5" fill="#E2E8F0"/>
  <rect x="808" y="272" width="198" height="50" rx="12" fill="#FEF3C7"/>
  <text x="907" y="302" text-anchor="middle" font-size="18" fill="#92400E" font-family="Arial, sans-serif" font-weight="700">Especialidades</text>

  <rect x="170" y="372" width="860" height="150" rx="18" fill="#F8FAFC"/>
  <rect x="194" y="398" width="170" height="96" rx="12" fill="#E2E8F0"/>
  <rect x="214" y="426" width="130" height="12" rx="6" fill="#CBD5E1"/>
  <rect x="214" y="448" width="98" height="10" rx="5" fill="#94A3B8"/>

  <rect x="384" y="398" width="170" height="96" rx="12" fill="#E2E8F0"/>
  <rect x="404" y="426" width="130" height="12" rx="6" fill="#CBD5E1"/>
  <rect x="404" y="448" width="98" height="10" rx="5" fill="#94A3B8"/>

  <rect x="574" y="398" width="170" height="96" rx="12" fill="#E2E8F0"/>
  <rect x="594" y="426" width="130" height="12" rx="6" fill="#CBD5E1"/>
  <rect x="594" y="448" width="98" height="10" rx="5" fill="#94A3B8"/>

  <rect x="764" y="398" width="246" height="96" rx="12" fill="#DBEAFE"/>
  <text x="887" y="438" text-anchor="middle" font-size="24" fill="#1D4ED8" font-family="Arial, sans-serif" font-weight="700">MATCH</text>
  <text x="887" y="464" text-anchor="middle" font-size="14" fill="#334155" font-family="Arial, sans-serif">rubro y necesidad del cliente</text>
</svg>
